<svg version="1" xmlns="http://www.w3.org/2000/svg" width="800" height="800" viewBox="0 0 600.000000 600.000000"><path d="M88.1 2.7c-.1 1.6-.3 4.6-.4 6.8-.1 2.2-.6 4.3-1.2 4.7-.6.5-.5.8.3.8.7 0 1 .5.6 1.1-.3.6-.8 2.9-1 5.2-.3 2.2-.6 4.3-.9 4.5-.3.3.3 1.1 1.3 1.9 1.3 1 1.3 1.3.2 1.1-1-.2-1.4.7-1.4 3.2s.4 3.4 1.4 3.2c1-.1.7.4-.6 1.6-2 1.7-2 2-.5 3 1.3.9 1.3 1 .1.6-1.1-.3-1.6.2-1.6 1.6 0 2.2 1.2 2.7 1.9.7.4-.9.6-.9.6.1.1.7-.6 1.5-1.4 1.8-.8.4-1.5 1-1.5 1.6 0 .5.6.6 1.3.2.9-.6.9-.4.1.7-.5.8-1 2.1-.9 2.9 0 .8-.4 1.8-1 2.2-.6.5-.5.8.3.8s1 .5.6 1.2c-1 1.6-1.3 12.8-.3 12.8.4 0 .9-.3 1.2-.8.2-.4.2-.2.1.5-.2.6.4 1.4 1.2 1.7.9.3 1.2.1.9-.4-.3-.6 0-1 .7-1 1 0 1-.2.1-.8-.9-.6-1.2-4.7-.3-4.7.1 0 .3-1 .4-2.2.1-1.2-.1-2-.6-1.7-1 .6-1.1-1-.1-2s1.1-5.6.1-5.6c-.4 0-.8-.5-.8-1.1 0-.5.5-.7 1-.4.6.3 1 .1 1-.4 0-.6-.4-1.1-1-1.1-.5 0-1-.5-1-1.1 0-.5.3-.8.8-.6.4.3.8-1.3.9-3.4.2-3-.1-3.8-1-3.3-.9.6-.9.5 0-.8.8-.9 1.4-5.6 1.7-11.5.2-5.6.7-10.6 1-11.2.4-.6.2-1.1-.4-1.1-.8 0-.7-.6.1-2.1.9-1.7.8-2-.3-1.3-1.1.6-1.1.5.1-.9C91 8.3 91 8 89.9 8c-.9 0-1-.3-.3-.8 1.8-1.2 2.3-6 .7-6.6-2-.8-2-.9-2.2 2.1zm0 21c-1.2 2-1.4 1.4-.5-1.2.4-.9.9-1.4 1.1-1.1.3.2 0 1.3-.6 2.3zM87 52c0 .5-.5 1-1.1 1-.5 0-.7-.5-.4-1 .3-.6.8-1 1.1-1 .2 0 .4.4.4 1zm-.7 3.5c-.3.9-.8 1.4-1 1.1-.3-.3-.2-.9.2-1.5.9-1.6 1.5-1.3.8.4zm.2 4.5c0 .7-.7 1.5-1.5 1.7-1.3.4-1.3.3 0-.6 1.3-1 1.3-1.2 0-2.2-1.3-.9-1.3-1 0-.6.8.2 1.5 1 1.5 1.7zM213.6 1.7c-.6 1.6-.1 1.6 2.5.3 1.3-.7 1.9-.7 1.9 0 0 .5-.7 1-1.5 1s-1.6.3-1.6.7c-.5 3-.5 7 .1 7.8.4.5.6 2.7.5 4.7-.1 2 .2 3.5.6 3.2.4-.2.7.5.6 1.6-.1 1.1-.6 2-1.2 2-.5 0-.2.5.8 1.1.9.5 1.7 1.5 1.7 2 0 .6-.4.8-.8.5-.5-.3-.9.1-.9.8 0 1.1.4 1.2 1.8.3 1.7-1.1 1.7-1.2.1-3.1-1.4-1.6-1.4-1.8-.2-1.4 1.1.4 1.6 0 1.6-1.2 0-1-.4-1.6-.8-1.4-.4.3-.8 0-.8-.5 0-.6.5-1.1 1.1-1.1.5 0 .7-.5.4-1.1-.4-.6-1.4-.8-2.4-.5-1.2.5-1.1.2.3-.9 1.3-1 1.5-1.5.6-1.5s-.7-.5.6-1.5c1.9-1.5 1.9-1.5-.1-.8-1.9.6-1.9.5-.3-1.3 1-1.2 1.4-2.5.9-3.2-.4-.8-.6-2.9-.4-4.8.3-3.1.1-3.4-2.2-3.2-1.3.1-2.7.8-2.9 1.5zm4.1 3.9c-.3.3-1.2.4-1.9.1-.8-.3-.5-.6.6-.6 1.1-.1 1.7.2 1.3.5zm-.4 3.1c-.5 1.2-.3 1.4.8.8 1.2-.8 1.2-.6 0 .8-1.8 2.2-3.4 1.1-2.1-1.4 1.3-2.3 2.2-2.5 1.3-.2z"/><path d="M275.8 1.7c-.3 1-.2 2.7.2 3.8.7 2.3.4 67.6-.4 87.5-1 24.7-2.4 44.1-3.2 45-.3.3-1.1-.2-1.7-1.1-1.7-2.3-13-9.5-20.2-12.8-7.1-3.4-20.5-7-26.4-7.3-3.1-.1-4.5-.7-5.3-2.2-.6-1.2-1-2.2-.9-2.4.2-.1-.4-3.5-1.3-7.5-2-9.1-2.5-12.1-3.2-17.7-.3-2.5-.7-5.6-1-7-2.2-12-2.3-45.3-.2-57.3.8-4.2 1.1-7.7.7-7.7-.4 0-1 1.2-1.3 2.7-.4 1.6-.9 3.9-1.2 5.3-.3 1.4-.6 2.9-.7 3.5-.2.5-.6 1.6-1.1 2.3-.4.7-.6 1.6-.3 1.9.3.3.2 1.5-.3 2.7-.4 1.3-1.1 4.7-1.5 7.7-.4 3-.8 5.6-1 5.9-2.4 4.1-2.5 55.8-.1 59.9.2.3.7 2.7 1 5.2.6 4.6.6 4.7-2.6 5.3-1.8.3-4.2.8-5.4 1-6.2 1.2-16.7 5-22.8 8.1-21.7 11.4-35 28.1-44.4 56-1.9 5.7-4.3 15.1-4.7 18.4-.1.9-.4 3.2-.8 5.1-.3 1.9-.9 5.5-1.3 8-.7 5.5-.8 30-.1 35.5 1.1 8 1.6 11.1 2.7 16 .6 2.7 1.2 5.7 1.4 6.5.2.8.6 2.2.9 3 .2.8 1.7 5.1 3.2 9.5 1.6 4.4 3.2 8.6 3.8 9.3 1.9 2.4.1 2-8.8-2.3-10.9-5.2-19.4-7.2-30.2-7.1l-8.2.1-1.7-5.5c-1-3-1.9-6-2-6.5-1.1-5.6-1.5-7.5-2-10.5-.3-1.9-.7-4.2-.9-5-3-11.5-2.2-47.6 1.4-60.6.6-2.1.6-3.3.1-2.8-1 1-5.6 18.5-6.5 24.9-.4 2.2-.8 5.1-1 6.5-2.4 15.6-2.4 32 0 53.5.2 2.2.7 5 1 6.2.4 1.8-.1 2.4-3.3 3.4-7.3 2.4-16.3 8-23.1 14.4-4.6 4.4-15.1 18.2-15.1 20.1 0 .3-.6 2-1.4 3.7-4.9 10.9-7.4 29.6-4.9 37.1.3 1.2.7 3 .9 4.1 1.1 9.2 5.3 20.1 11.8 30.5 5.9 9.5 22.1 25.2 34 33 27.4 17.8 51 39.8 70.4 65.5 3.2 4.2 7.2 10.5 7.2 11.3 0 .6.4 1.2.8 1.4.7.3 4.6 6.9 12.9 21.8 1.4 2.5 3.2 5.2 3.9 6.1.8.8 1.4 1.8 1.4 2.1 0 .9 11 17.1 13.6 20 1.3 1.5 2.4 3.1 2.4 3.4 0 .4 1 1.6 2.3 2.8 1.2 1.2 4.5 4.7 7.4 7.8 7.2 7.8 15.6 14.7 23.8 19.8 3.9 2.4 7.1 4.3 7.2 4.2.3-.2 3 .7 6 1.8 3.6 1.5 30.7 1 36.1-.6 2.6-.8 5.8-1.7 7.2-2 4.3-.9 4.5-.9 5.7-1.7.6-.4 2.4-.9 4-1.1 1.5-.3 3.9-.8 5.3-1.1 4.7-1.3 21.5-1.3 29 .1 19 3.3 36.3 3.7 44 1 .8-.3 2.6-.7 4-1 5.5-.9 20.3-9 29.5-16 9.9-7.6 27.8-27.8 32.4-36.4.6-1.2 1.7-2.2 2.4-2.2s4.1 2.7 7.7 6.1c3.6 3.3 10.3 9.6 15 14 11.5 10.8 12.2 10.5 10.6-4.6-1.5-13.7-2.3-20-2.6-20-.1 0-.3-1.6-.5-3.5-.7-6.4-2.1-15.7-3.5-23.9-1.5-8.2-1.5-8.2 5.6-15.1 9.5-9.4 9.1-9 18.4-16.5 4.7-3.7 8.7-7.1 9-7.4.3-.4 2.5-2.2 5-4.1 2.5-1.9 4.7-3.8 4.8-4.2.2-.5.8-.8 1.2-.8.5 0 2.4-1.3 4.2-2.9 1.8-1.6 7.1-6.2 11.8-10.2 28.4-24.1 43-44.8 47.4-66.9.3-1.4.9-4.6 1.4-7.1 1.2-6.2.8-21-.7-28.4-3.9-18.5-12.7-34.7-25.1-46.3-3.2-3-11.4-8.9-16.5-11.8-2.2-1.3-2.3-2.8-1-11.9.5-3.3.9-13.9.9-23.5 0-17.4-.5-24.1-2.9-36-.2-1.4-.7-3.7-.9-5.1-.7-4.4-3.9-15.4-4.7-16.3-.4-.4-.4.9.1 3 2.2 10 3 18.9 3 34.4 0 11.1-.1 13-1.6 23-.3 2.5-.8 5.4-.9 6.5-.2 1.1-1.3 6.2-2.6 11.3-2.2 9.1-2.3 9.3-4.8 8.7-17-4.4-39.5-1.4-57.4 7.6-6 3.1-7.9 3.3-5.5.7.7-.7 1.5-2 1.7-2.8.2-.8 1-3.8 1.8-6.5 5.7-20.1 7.6-37.7 5.9-56-1.5-17.7-10.7-44.1-19.1-55.1-1.4-1.8-2.5-3.5-2.5-3.9 0-.6-4.9-6.3-10.1-11.6-3.7-3.8-13.1-10.5-18.5-13.2-4.2-2.2-15.9-6.5-18.7-7-10.3-1.8-10.7-2-10.3-3.6 6.2-22.3 4.3-65.8-4.1-94.1-2.5-8.1-3.1-8-1.6.2 2.8 14.6 2.4 48.4-.7 66.3-.5 3.3-1.3 7.6-1.6 9.5-.3 1.9-.7 3.9-.8 4.5-.1.5-.8 4-1.6 7.7-.7 3.8-1.6 6.9-1.9 6.9-.3.1-1.5.3-2.6.4-2.1.2-11 1.6-13.1 2.1-.6.1-2.4.5-4 .8-2.7.6-3 .3-5.4-5.1-1.3-3.2-3.8-9-5.6-12.8-1.7-3.9-3.1-7.2-3-7.5.1-.3-.6-1.7-1.5-3-.9-1.4-3.4-6.6-5.6-11.5-2.3-5-7.7-16.5-12.2-25.8-4.5-9.2-8.1-17.1-8.1-17.6s-.3-1.1-.7-1.3c-.5-.2-6-10.7-12.3-23.3C282.9 1.2 282.4.5 279.3.2c-2.4-.2-3.2.1-3.5 1.5zm13.6 21.8c10.3 20.7 28.8 59.2 29.1 60.5.1.3 2 4.5 4.3 9.3 2.3 4.9 4.2 9 4.2 9.2 0 .2 1.5 3.6 3.4 7.7 3.2 6.7 6.7 14.6 7.1 15.8.5 1.5 2.6 6.4 3 7 .3.4-2.1 2-5.3 3.6-15.2 7.5-29.7 21-36.1 33.6-.8 1.6-1.9 2.8-2.5 2.8-1 0-3.6-4.4-3.6-6.1 0-1.7-7.6-13.7-12.4-19.9-3.7-4.6-5.1-7.2-4.9-9 2.8-23.2 4.6-63.1 4.7-104.7 0-15 .1-27.1.3-27 .1.2 4 7.9 8.7 17.2zm-59.5 99.9c9.6 2.1 22.9 7.3 25.7 10.1.8.8 2.1 1.5 2.7 1.5.7 0 2.8 1.5 4.8 3.3 2 1.7 4.8 4.1 6.2 5.2 2.5 1.8 2.7 2.3 2.2 8.5-.3 3.6-.7 8.1-1 10-.2 1.9-.7 5.7-1 8.5-.3 2.7-.8 6.6-1 8.5-.3 1.9-.7 5.3-1 7.5-.6 4.7-1.6 11.3-2 13.5-.6 3.7-1.9 11.6-2.1 12.2-.1.5-.2 1.7-.3 2.9-.1 1.8-.9 1.4-5.8-3-3.1-2.8-6.3-5.1-7-5.1-.7 0-1.3-.3-1.3-.8 0-.7-2.7-2.1-8.4-4.2-4.1-1.5-16.3-2-21.6-.9-5.2 1.1-17 6.7-17 8 0 .5-.5.9-1 .9-1.1 0-6.2 5-10.9 10.5-3.4 4.1-8.8 16-10.6 23.5-1 4.6-1.3 9.9-1 18 .4 11.1.6 12.8 1.8 16 .4 1.3 1.2 4.1 2.2 8.5.9 3.6 6.1 16 9 21.2 1.9 3.5 3.1 6.3 2.7 6.3-.4 0-.2.4.4.8.6.4 2.8 3.4 4.9 6.7 2.2 3.3 4.2 6.2 4.5 6.5.3.3 1.3 1.5 2.2 2.8 3.7 5.5 13.5 14.7 18 17.1 1.8.9 2.5 2.1 2.4 3.7 0 1.3-.4 2.4-.7 2.4-.4 0-1 1.2-1.4 2.7-1 4.3-4.7 12.3-5.5 12.3-.4 0-.7 1.1-.7 2.4 0 1.3-1.2 4.8-2.7 7.8l-2.7 5.4-15.7-7.8c-8.6-4.4-16.4-8.6-17.2-9.4-1.3-1.3-.8-1.4 4.4-.8 3.3.3 6.9.8 8 1 2.7.6 10.2 1.6 14.1 1.9 1.7.1 3.2.3 3.5.4 1.7.7 7 .7 7 0 0-.5-1.3-1-3-1.1-4.7-.3-8.3-.6-11-1.1-1.4-.3-4.7-.8-7.3-1.2-2.7-.4-5.6-.8-6.5-1-1-.1-3.9-.6-6.6-.9-4.1-.6-5.7-1.5-9.1-4.9-6.5-6.7-15.8-13.2-24.3-17.2-17.9-8.4-37.2-5.1-50.2 8.6-5.2 5.4-6.5 7.1-6.8 8.2-.1.4-.8 2-1.5 3.5-3 5.9-4 14.4-2.3 19.7 4.3 13.6 34 38.7 58.4 49.4 8.4 3.7 9.8 4.1 16.6 4.8 15.2 1.5 27.5-13.7 28.1-35 .3-10-.6-14.8-3.9-22.1-1.3-2.8-2.2-5.4-2-5.8.5-.8 5.4 1.4 5.4 2.5 0 .5.4.5 1 .2.5-.3 1-.1 1 .4 0 .6.5 1.1 1.2 1.1 1.6 0 16.1 7.2 17 8.5.4.5.4 1.3.2 1.7-.3.4-.1.8.5.8.5 0 1.3-.5 1.7-1.1.3-.6.9-.7 1.3-.3.3.5 4.9 3.1 10.1 5.7 5.2 2.7 12.7 6.7 16.7 8.9l7.2 4.1-2.3 3.6c-1.2 2-3 5.3-4.1 7.5-2.8 5.4-13.3 16-24.6 24.9-9.5 7.5-18.3 16.4-20 20.2-.5 1.1-1.8 3.4-2.9 5.2-5.7 9.5-5.3 25.4.9 35.3 6.6 10.5 19.5 20.4 29.5 22.6 11 2.5 18.3 1.4 31-4.5 10.8-5.1 13.8-6 20.4-6.4.6 0 1.2-.3 1.2-.7 0-.3.8-.6 1.8-.6.9-.1 4-.4 6.7-.8 12.9-1.8 16.8-2.1 28-2 6.6 0 13.6.4 15.5.8 1.9.5 4.4 1 5.5 1.2 1.1.2 4.3.8 7 1.4 8.8 1.8 9.9 2 15 2.7 6.1.8 18.9.8 23 0 7.4-1.4 9.1-2 15.2-4.7l6.5-3 3.2 2.6c1.7 1.4 4.9 4 7 5.7 2.2 1.8 4.9 4.1 6.2 5.3 1.2 1.1 4.2 3.8 6.8 5.9 2.5 2 4.6 4.2 4.6 4.8 0 1.3-8.7 14.1-13.1 19.1-4.9 5.7-13.1 13.8-18 17.7-2.3 1.9-4.7 4-5.4 4.7-.8.6-1.7 1.2-2.1 1.2-.4 0-1.5.6-2.3 1.4-2.5 2.2-10.8 6.6-12.5 6.6-.9 0-1.6.4-1.6.8 0 .8-5.7 2.5-13 3.9-6.9 1.3-22.6.8-34-1.2-9-1.5-13.5-1.9-21.5-1.9-4.9 0-10.3.4-12 .8-1.6.4-4.1.9-5.4 1.1-1.3.2-3.5.8-5 1.3-1.4.6-3.9 1.4-5.6 1.8-1.6.4-3.2.8-3.5.9-.7.2-10.8 2.4-14 3-8.5 1.8-23.8-.3-31.3-4.1-6.6-3.4-15.4-10-22-16.3-7.3-7-20.1-22.4-23.3-27.9-1-1.7-2.2-3.2-2.6-3.2-.4 0-.8-.7-.8-1.5s-.4-1.5-.8-1.5-1.3-1.2-1.9-2.8c-1.2-2.6-3.3-6.2-4.3-7.2-.5-.5-1.4-2-5.8-9.9-1.4-2.5-4.9-8.6-7.9-13.5-2.9-4.9-5.3-9.3-5.3-9.8 0-.4-.4-.8-.8-.8s-1.5-1.2-2.4-2.7c-.9-1.6-2.5-3.7-3.5-4.8-1-1.1-3.4-4-5.3-6.5-3.9-5.2-29-30.3-33.9-34-1.8-1.4-3.8-3-4.5-3.5-4-3.5-13.6-10.5-14.3-10.5-.5 0-1.5-.9-2.3-2-.8-1.1-1.8-2-2.3-2-1.7 0-20.4-14.6-26.7-21-9.9-9.8-16.4-20.3-20.3-32.5-2.7-8.2-3-10.5-3.3-21.5-.3-10.7 1.7-22.7 4-24.2.6-.4.8-.8.3-.8-1 0 3.9-9.5 7.2-14 4.4-6.1 12.6-13.6 19-17.4 3.4-2.1 6.7-3.9 7.4-4 .7-.1 1.7-.4 2.2-.8.6-.3 3-1.1 5.5-1.8 13.8-3.8 30.2-2.3 43 4 5.8 2.8 10.2 5.2 11 6 .3.3 2.6 2.2 5.2 4.2 8.7 7 10.5 4.2 4.7-7.4-3.7-7.7-8.5-19.8-9.5-24.3-.7-2.7-1-3.7-1.7-5.5-.3-.8-.9-3.3-1.3-5.5-.3-2.2-.7-4.9-.9-6-.2-1.1-.7-3.8-1.1-6-1.6-8.2-.8-35.8 1.2-45.8.2-1.2.7-3.6 1-5.2.5-2.7 1.8-8.7 2.9-12.5 2-7.6 10.1-26.2 11.7-26.8.4-.2.8-.9.8-1.5 0-.7 1-2.5 2.3-4.1 3.2-4.3 17.6-18.6 18.7-18.6.5 0 1.5-.6 2.2-1.3 1.1-1.1 12.3-6.9 13.8-7.2.3 0 2.8-.9 5.6-1.8 6-2.1 8.5-2.7 13.9-3.4 2.2-.3 4.2-.7 4.3-.8.5-.5 18.3.3 21.1.9zM384 135.3c.8.2 3.3.7 5.5 1.2 6 1.2 18.4 6.7 24.8 10.9 6.4 4.3 14.3 12 18.4 18 1.5 2.2 3.4 4.7 4.1 5.4.6.7 1.2 2 1.2 2.8 0 .8.3 1.4.8 1.4.4 0 1.3 1.2 1.9 2.7.7 1.6 2.4 5.4 3.7 8.5 2.7 6.2 6.2 16.5 7.1 21 .3 1.6.7 3.8.9 5 2.5 12.5 2.2 41.9-.4 46.9-.5.9-.7 1.8-.5 2.1.3.2-.5 3.8-1.6 7.9-1.1 4.1-2.2 8.1-2.4 8.9-.2.8-1.6 4.4-3 8-4 9.8-4.5 11.9-3.2 12.7 2 1.3 3 1 7.3-1.9 9.1-6 23.4-11.7 34.3-13.6 4.9-.9 21.3-.8 25.1.1 4.3 1 7.7 1.9 9 2.3.8.3 1.7.5 2 .6.3 0 3.6 1.6 7.4 3.6 9 4.8 22.1 17.4 27.5 26.6 3.9 6.7 8.5 17.6 9.5 22.6.3 1.4.8 3.6 1.1 5 1.1 4.5 1.3 21.7.4 26.7-.5 2.6-1.1 5.7-1.3 6.8-.2 1.1-1.4 4.7-2.6 8-1.1 3.3-2.4 7-2.7 8.3-.3 1.2-.9 2.2-1.4 2.2-.5 0-.9.5-.9 1.1 0 1.1-8.2 14.3-10.6 16.9-5 5.6-19.8 20.3-24.4 24.2-3 2.6-6.6 5.6-8 6.8-1.4 1.2-4.1 3.4-6 4.9-1.9 1.4-4.2 3.3-5 4.1-3.1 2.9-7 6-7.5 6-.3 0-1.3.8-2.3 1.8-1 .9-6.5 5.6-12.3 10.4-5.7 4.7-12.6 10.7-15.3 13.3-2.7 2.5-5 4.4-5.2 4.2-.2-.2-.6-2.1-.9-4.3-.4-2.1-.8-5-1.1-6.4-.3-1.4-.7-3.9-1-5.5-.6-3.1-1.9-9.5-2.7-13-.2-1.1-.8-3.8-1.2-6-.5-2.2-.9-4.2-1-4.5 0-.3-.4-2.3-.8-4.5-.5-2.2-1-4.7-1.2-5.5-.3-1 .7-2 2.8-2.9 26.7-11.4 45.8-28.7 54.9-49.6 4.2-9.7 4.9-12.7 5.3-22 .3-10.3-2.7-18.3-9.9-25.5-4.1-4.2-12.6-10.6-12.6-9.5 0 .3-1.3-.1-2.9-1-5.7-2.9-18.2-3.9-24.8-1.9-2.4.6-4.3 1-4.3.7 0-.3-.7.1-1.7.8-.9.8-1.7 1.2-1.7 1-.2-.9-13.3 6.1-18 9.7-2.7 2-5.6 4.1-6.5 4.7-.8.5-2.1 1.7-2.8 2.5-1 1.3-1.2 1.3-1.8-.2-.4-.9-.8-2.5-1-3.5-.2-1-.4-1.8-.5-1.8-.1 0-.3-.8-.6-1.8-.6-2.7-1-4.1-1.7-5.7-.7-2-2.8-8.8-3.1-10.3-.2-.7-.6-1.9-.9-2.7-.8-1.9-4.8-14.6-5.1-16.3-.2-.6-.6-2-1-2.9-.4-.9-.8-2.2-1-3-.1-.7-.4-1.8-.7-2.3-.7-1.1-2.3-6.7-2.2-7.5 1.7-14.4 2.2-31.4 1-36.5-.2-1.1-.8-3.9-1.2-6.3-.4-2.3-1.2-4.5-1.6-4.8-.5-.3-.9-1.4-.9-2.4 0-2.1-3.2-8.8-6.4-13.5-4.1-5.9-10.2-11.7-15.7-15.2-5.2-3.2-6-4.1-8.9-11.1-1.7-4.2-3.2-8.3-3.2-9-.1-.6-.5-1.2-1-1.2-.4 0-.8-.6-.8-1.3 0-1.2-11.5-29.2-17.1-41.5-1.6-3.6-2.9-7-2.9-7.7 0-1.4 2.6-2.2 9.3-3.2 2.3-.3 4.3-.7 4.5-.8.5-.4 19.3.3 21.2.8zm-38.7 9.2c1.1 2.2 2.5 5.1 3.2 6.5.7 1.4 1.4 2.8 1.4 3.3 0 .4.8 2.4 1.7 4.5.9 2 4.5 10.9 8.1 19.7 3.6 8.8 7.1 17.3 7.8 19 2.3 5 2.3 7 0 6.7-2.9-.4-8.6-.3-11.5.3-8.4 1.6-23.4 12.9-30 22.5-1.3 1.9-2.7 3.7-3 4-.4.3-1 1.2-1.3 2-.4.8-1.6 2.8-2.7 4.5-4.5 7.1-11.7 24.3-13.6 32.7-.2 1-.6 2.8-.9 4-1.2 5.5-2.4 23.8-1.5 23.8.3 0 .5 1.4.4 3.1-.1 4.3 3.7 17.3 7 23.9 11.9 23.4 30.1 33.7 49.6 27.9 2.5-.7 4.7-1.6 5-2 .3-.3 2-1.4 3.8-2.3 6.2-3.2 17.2-13.9 22.5-21.9 4.4-6.7 10.1-17.7 11.2-21.7 1.5-5.6 1.8-5.6 3.7 0 3.3 9.5 13.9 43.4 14.4 45.9.4 1.8-.4 3.4-2.9 6-6.3 6.6-14 19.4-16.2 26.8-4.2 14.6-1.2 27.2 8.7 37.3 6.1 6.2 7.4 7.1 14.8 10.6 6.1 3 9.2 4 15 5.1 3.8.7 4.3 1.5 5.5 9.5.2 1.5.6 3.5.9 4.5.3 1 .7 2.9 1 4.3.3 1.4.7 3.4.9 4.5.9 4 4.6 22.1 5.8 28.6 1.2 6.4 1.1 6.8-1.1 10-1.3 1.9-2.7 3.6-3 3.9-.3.3-4.2 6.5-8.6 13.7-4.3 7.3-8.5 13.3-9.1 13.3-.7 0-1.8-.9-2.5-2s-1.8-2-2.5-2-1.3-.3-1.3-.8c0-.4-2.8-2.9-6.3-5.7-3.4-2.7-6.7-5.4-7.3-6-.6-.5-2.4-2.1-4.1-3.4l-3-2.4 3.4-3.6c8.6-8.9 11.2-21.4 7.2-33.5-2.6-7.8-5.9-12.9-11.9-18.6-4.8-4.6-7.3-6-24.3-14-8.7-4-10.2-5-15.7-10-2.5-2.4-8.4-11.3-12-18.3-2.3-4.6-10.1-12-16.1-15.4-4.7-2.6-8.4-4.1-15.4-5.9-9.6-2.5-27.5-3.5-37.9-2-12.8 1.8-23.8 7.6-30.2 15.8l-2.1 2.7-5.4-2.8c-3-1.5-10.9-5.7-17.6-9.2-11.8-6.1-13.7-7.9-11.4-10.5.4-.5 1.6-3 2.6-5.6l1.8-4.8 4.3.4c2.4.2 4.4-.1 4.4-.5 0-.5-1.5-.9-3.4-.9s-3.7-.3-3.9-.7c-.2-.5 1.3-4.7 3.2-9.4l3.6-8.6 4 1.4c6.8 2.4 13.8 2.6 20.4.7 3.4-.9 6.1-2 6.1-2.5 0-.4.8-1 1.8-1.3 2.8-.9 10.5-8.7 13.9-14.1 1.8-2.8 3.6-5.5 4.1-6 1-1.2 6.3-14.3 6.8-16.8.2-1 .5-2.6.8-3.5 2.6-8.3 2.7-30.4.2-42.5-2.9-13.9-11.8-34.9-17.5-41.5-3.4-3.9-4.1-6.1-3.3-10 .5-2 .8-4.5.6-5.5-.1-.9.1-1.7.5-1.7.3 0 .7-1.7.8-3.8.1-2 .4-4.8.7-6.2.3-1.3.8-4.2 1.1-6.5.4-2.2.8-5.1 1-6.5.7-4.5 2.5-18.4 3-23.5.3-2.8.8-6.7 1.1-8.8l.6-3.7 1.9 2.4c1 1.3 1.9 2.9 1.9 3.5 0 .6.5 1.1 1 1.1.6 0 1 .7 1 1.5s.3 1.5.8 1.5c.4 0 1.9 2.4 3.5 5.3 2.7 5.2 3.7 7.4 6.7 15.7 1.1 3.2 2.3 4.6 3.8 4.8 1.7.3 2.7-.9 5.2-5.9 6.4-12.9 18.3-26.5 27.6-31.8 1.6-.9 3.1-1.8 3.4-2.1 1.5-1.5 8.7-4.9 10-4.7.8.1 2.3 2 3.3 4.2zm112.1 362c.9 5.9 1.8 11 2 13 .2 1.1.7 4.5 1.1 7.5.4 3 .9 6.2 1 7 .5 2.6 1.8 12.4 2 15 .1 1.4.6 4 1 5.9.9 4.2.3 3.9-8.5-4.5-11.1-10.5-16.5-15.3-17.2-15.4-1.1 0-1-4 .1-4 .5 0 1.2-1.1 1.5-2.5.4-1.4 1.1-2.5 1.6-2.5.6 0 1-.5 1-1 0-1.3 8.1-14.4 9.2-14.8.4-.2.8-.9.8-1.6 0-1.1 3.2-5.7 3.7-5.3.1.2.4 1.6.7 3.2z"/><path d="M209.3 393c-.3 1.7-1 3.3-1.4 3.6-.5.3-.7 1-.4 1.5.4.5.1.9-.4.9-.6 0-1.1.7-1.1 1.5s-.4 1.5-1 1.5c-.5 0-1 .5-1 1 0 .6-.8 2.8-1.9 5-1.4 2.8-1.5 3.7-.5 3.3.8-.3 1.4-1.1 1.4-1.9 0-1.1 2.3-5.8 4.8-9.9.4-.6.7-1.2.8-1.5.1-.8 2.4-6.2 3-7.1.3-.5 0-.9-.6-.9s-1.3 1.4-1.7 3zM198.1 416.2c-.8 1.8-2.1 4.1-2.9 5-.8 1-1.1 1.8-.6 1.8.6 0 2.2-2.3 3.7-5 1.5-2.8 2.4-5 1.9-5-.4 0-1.3 1.5-2.1 3.2zM191.6 427.5c-.9 2.6-.7 3.2.5 1.2.6-1 .9-2.1.6-2.3-.2-.3-.7.2-1.1 1.1zM189.5 432.1c-.4.6-.5 1.2-.2 1.5.2.3.7-.2 1-1.1.7-1.7.1-2-.8-.4zM180.1 447.6c0 1.1.3 1.4.6.6.3-.7.2-1.6-.1-1.9-.3-.4-.6.2-.5 1.3zM173.6 457.7c-.6 1.4-.5 1.5.5.6.7-.7 1-1.5.7-1.8-.3-.3-.9.2-1.2 1.2zM230.5 371c-.4.6 1 1 3.7 1.1 2.4 0 5.3.2 6.5.5 1.2.2 2.4 0 2.7-.5.3-.4-2-.9-5.1-1-3.1-.1-5.9-.4-6.4-.6-.4-.3-1-.1-1.4.5zM245 372.2c0 .5 1.7.8 3.7.8s3.3-.3 3-.7c-1-.9-6.7-1-6.7-.1zM259 372l-2.5.8 2.8.1c1.5.1 2.7-.4 2.7-.9 0-.6-.1-1-.2-.9-.2.1-1.4.5-2.8.9zM299.5 372c-.3.5-.1 1 .4 1 .6 0 1.1-.5 1.1-1 0-.6-.2-1-.4-1-.3 0-.8.4-1.1 1zM253.8 372.7c.7.3 1.6.2 1.9-.1.4-.3-.2-.6-1.3-.5-1.1 0-1.4.3-.6.6zM264.4 373.2c.9.5 2.3.5 3.2 0 1.2-.6.7-.9-1.6-.9s-2.8.3-1.6.9zM270.5 373c-.3.6.1.7.9.4 1.8-.7 2.1-1.4.7-1.4-.6 0-1.3.4-1.6 1zM274.6 372.8c-.3.5.1.9.9.9s1.2-.4.9-.9c-.3-.4-.7-.8-.9-.8-.2 0-.6.4-.9.8zM283 373c.8.5 2 1 2.5 1 .6 0 .3-.5-.5-1s-1.9-1-2.5-1c-.5 0-.3.5.5 1zM287.7 373.1c.7.7 1.5 1 1.8.7.3-.3-.2-.9-1.2-1.2-1.4-.6-1.5-.5-.6.5zM364 1c.8.5 1.1 1 .5 1-.5 0-.4.4.4.9 1.8 1.2 3.8.4 3.8-1.4 0-1.8-1.3-2-2-.3-.4 1-.6 1-.6 0-.1-.6-.9-1.2-1.8-1.2-1.5 0-1.6.2-.3 1zM496.6 4.2c.4 2.4.6 5.3.6 6.5-.1 1.3.2 2.3.6 2.3.4 0 .7 2.3.7 5.1 0 3.5.5 5.4 1.5 6 1 .6 1.1.8.2.9-.9 0-1.1 1.3-.8 4.7.2 2.7.5 5 .6 5.3.1.3.2.9.1 1.4-.1.5.4 1.3 1.1 1.7 1 .7 1 .9-.1.9s-1.1.3 0 1.7c.8.9.9 1.4.3 1-.9-.5-1 .2-.5 2.6.4 1.7.7 4.9.6 6.9-.2 2.4.3 3.9 1.2 4.2 1.1.5 1.3 0 .8-1.7-.5-1.9-.4-2 .5-.4 1.1 1.8.5 4.1-.9 3.3-.4-.3-.7 2.4-.7 5.9.1 5.6.4 6.6 2.3 7.6 1.3.7 2.1 1.5 1.8 1.7-.3.3 0 1 .5 1.7.7.8.2 1.6-1.5 2.5-1.4.7-2.5 1.7-2.5 2.2 0 .5.4.7.9.4 1.6-1 1.9 1.8.4 3.6-1.3 1.4-1.2 1.8.5 2.7 1.8 1 1.9.7 1.7-3.5-.1-2.4.2-4.7.8-5.1.6-.3.7-.1.3.5-.4.7-.3 2 .2 2.9.7 1.2 1 .1.9-4-.1-3.1-.6-5.7-1.2-5.7-.5 0-1.7-.6-2.6-1.3-1.4-1.1-1.4-1.4-.2-2.6 1.2-1.1 1.4-1 1.1.4-.2 1 .2 2 .9 2.2.8.3 1-.4.7-2.2-.2-1.4-.6-5-.7-8-.1-3-.6-5.5-1-5.5-.5 0-.5-.5-.2-1 .6-.9-.8-1.4-2.8-1.1-.5.1-.6-.3-.2-.8.3-.6 1.2-.8 1.9-.5.8.3 1.7 0 2.2-.7.4-.7.3-1-.2-.6-.6.3-1.1-1-1.1-3.1-.1-2-.6-3.8-1.2-4-.6-.2-1.1-.8-1.1-1.3 0-.6.4-.8.8-.5.4.2.8-.6.8-2 0-1.3-.4-2.4-1-2.4-.5 0-.6-.3-.3-.7.4-.3-.1-1.2-1.1-2-1.4-1-1.4-1.2-.1-.8 1.1.4 1.5 0 1.4-1.4-.1-1.1-.5-2.4-1-2.8-.4-.5-.5-.3-.1.4.3.6.2 1.4-.3 1.7-1 .7-.9-1.2.1-2.9.3-.6.4-2.1.2-3.5s-.7-4.5-1-7c-.3-2.5-1.1-5.1-1.8-5.9-.9-1.2-.8-1.3.2-.7 1.2.7 1.2.4.1-1.5-.7-1.3-1.2-2.5-1.1-2.7.1-.1.2-1.3.2-2.7 0-1.6-.6-2.5-1.5-2.5-1.3 0-1.5.8-.9 4.2zm7.9 41.8c.3.5.1 1-.4 1-.6 0-1.1-.5-1.1-1 0-.6.2-1 .4-1 .3 0 .8.4 1.1 1zm.9 13.8c.3.5-.1.9-.9.9s-1.2-.4-.9-.9c.3-.4.7-.8.9-.8.2 0 .6.4.9.8zm-1.3 4.5c-1 .9-1.1.8-.5-.6.3-1 .9-1.5 1.2-1.2.3.3 0 1.1-.7 1.8zM364.5 6.7c0 1.6-.4 3.1-1 3.5-.6.5-.6.8.2.8.7 0 1 1.2.8 3-.3 2.2 0 3 1.1 3 .8 0 1.2.5.9 1-.4.6-1 .8-1.3.6-.4-.2-.7 1.5-.7 3.9 0 3 .4 4.1 1.3 3.8.8-.4 1 0 .6 1.1-.3.9-.9 1.4-1.3 1.1-.4-.2-.7.4-.6 1.3.1 2.1 2.4 6.2 2.5 4.5 0-.6-.5-1.5-1-1.8-.7-.4-.6-1.3.1-2.6 1.4-2.7 2-6.1.9-5.4-.5.3-1.1.1-1.4-.4-.3-.5.1-1.2 1-1.5.8-.3 1.3-1 .9-1.5-.3-.5-.1-1.3.5-1.6.8-.5.8-1.1 0-2-.7-.8-.8-1.9-.4-2.6 1-1.7 1.2-10.9.1-10.9-.5 0-.6.8-.3 1.7.6 1.7.5 1.7-.8 0-1.8-2.3-2.2-2.2-2.1 1zm3 4.1c.1 1-.4 1.9-1 1.9s-1.2-.6-1.2-1.4c0-.7.5-1.3 1-1.3s.3-.8-.4-1.8c-1.1-1.4-1.1-1.5.1-.5.7.7 1.4 2.1 1.5 3.1zm-.4 8.5c-.6.8-.7 1.8-.3 2.2.4.5.1.5-.6.1-1-.6-1-1.1-.1-2.2.6-.8 1.4-1.4 1.6-1.4.3 0 0 .6-.6 1.3zM217.9 29.7c-.8.9-.9 1.4-.2 1 .6-.4 1.3-.2 1.6.5.2.7.3.5.2-.4-.2-.9.2-1.9.9-2.2.8-.3.8-.5 0-.5-.6-.1-1.8.7-2.5 1.6zM218.5 35c.3.6.1 1-.6 1s-1 .3-.6.6c.3.3 1.3.2 2.2-.4 1.6-.8 1.6-.9.1-1.5-1-.4-1.5-.3-1.1.3zM364.1 35.6c0 1.1.3 1.4.6.6.3-.7.2-1.6-.1-1.9-.3-.4-.6.2-.5 1.3zM219 38.5c-.7.9-1.1 1.7-.9 2 .3.2 1-.5 1.7-1.5 1.4-2.4 1-2.6-.8-.5zM364.9 39.1c-.8 1.6-.8 2.4.1 3.3.8.8.9.6.4-.8-.4-1.2-.4-1.7.2-1.3.5.3 1-.3 1-1.4 0-2.4-.3-2.4-1.7.2zM219.9 41.2c-.5 1.5-.4 5 .1 5.3.3.2.6-.9.6-2.6 0-2.4-.3-3.7-.7-2.7zM364.5 46.1c-.4.6-.5 1.2-.2 1.5.2.3.7-.2 1-1.1.7-1.7.1-2-.8-.4zM221.5 55.1c-.4.6-.5 1.2-.2 1.5.2.3.7-.2 1-1.1.7-1.7.1-2-.8-.4zM83.3 71.5c.2 1.9 0 3.6-.6 3.8-.6.2-.6 1 .1 2.4.6 1.1.8 2.3.4 2.7-.8.9-1 6.6-.1 6 .8-.4 2.2 3.4 2 5.3-.1.7.4 1.3 1.1 1.3.9 0 .9.3-.2 1s-1.1 1-.2 1c.7 0 1 .5.6 1.1-1 1.6-2.3-.8-1.9-3.7.1-1.3-.3-2.8-.9-3.3-.8-.7-1.1.2-1 3 .1 2.6.8 4.5 2 5.5 1 .9 1.3 1.2.5.8-.7-.3-1.7-.1-2.1.6-1.2 1.9 0 4.2 1.9 3.6 1.1-.4 1-.2-.3.9-1.1.8-1.4 1.5-.8 1.5.7 0 1.2.5 1.2 1.1 0 .5-.4.8-.9.4-.5-.3-1.3 0-1.7.6-.4.7-.3.9.4.5.6-.3 1.3-.2 1.6.3.4.5.2 1.2-.4 1.6-.5.3-1 1.2-1 1.8 0 .7.7.4 1.4-.6.8-1.1 1.7-1.4 2-.8.4.5-.3 1.6-1.4 2.4-2.1 1.5-2.3 3.6-.5 4.9.6.5.6.8-.2.8-.6 0-1 .8-.8 1.7.1 1 .7 1.7 1.3 1.6.6-.2 1 .6.9 1.7-.1 1.1-.4 2-.8 2-1 0-.3 8.4.9 10.7 1.7 3 1.5 3.8-.5 2.2-1.5-1.1-1.6-1.1-.5.1.6.8 1.2 1.8 1.2 2.3 0 .4-.6.5-1.2.1-.7-.4-.9-.3-.5.1 1.4 1.6 3.6 1.4 3-.3-.5-1.1-.3-1.3.6-.7 1 .6 1.1.3.1-1.5-.6-1.2-.9-2.8-.6-3.5.3-.8 0-1.2-.7-.9-.8.3-1.3-.4-1.3-1.6 0-2.2.6-2.5 2.4-1 .8.7.9.7.3-.1-.5-.6-.7-1.8-.4-2.5.3-.8 0-1.4-.7-1.4-.6 0-.8.4-.5 1 .3.5.1 1-.5 1-.7 0-.9-.7-.6-1.6.3-.9.6-1.8.6-2 0-.3.4-.3.8 0 .5.3.8-.9.7-2.7-.2-1.9-.7-3.1-1.5-2.9-.6.1-1-.3-.7-1 .2-.7 1-1.2 1.7-1 .9.2.7-.6-.5-2.4-1.3-2-1.4-2.6-.3-2.2 1.1.5 1.3-.7 1.3-5.4-.1-3.2.2-6.1.7-6.4.5-.3.5-1.1.1-1.7-1.1-1.7-1-3.1.2-3.9.7-.5.7-.8-.1-.8-1.1 0-1.3-9.8-.1-11.7.4-.6.3-1.4-.2-1.8-.6-.3-.7-1.3-.4-2.3.6-1.4.4-1.5-.9-.4-1.3 1-1.8 1-2.4.1-.5-.8-.3-.9.6-.4.8.5 1.1.3.8-.6-.3-.8-1.1-1.3-1.8-1.1-1.1.2-1.1 0-.1-1.1.6-.8 1-2 .9-2.7-.2-.7.4-1.5 1.2-1.7.9-.3 1.1-.1.5.4-2.1 1.7-.7 6.2 1.5 4.8.8-.5.8-1.1-.1-2.1-.9-1.1-.9-1.7 0-2.8.9-1.1.8-1.5-.5-2-.9-.3-2.1-.3-2.6.1-.7.3-.8.1-.4-.5.4-.7.2-1.2-.4-1.2-.6 0-.9 1.4-.7 3.5zm4.7 11c0 .2-.5.7-1.2 1.1-.7.4-.8.3-.4-.4s.3-1.2-.3-1.2c-1.6 0-2.3 2-.9 2.5.8.3 1.4 1.6 1.5 2.8.2 1.9-.1 1.8-1.5-.8-2.6-4.9-2.3-7.2.9-5.5 1 .6 1.9 1.3 1.9 1.5zm-.7 18.1c-.3.9-2.3 1.3-3.6.6-.4-.2-.5-.7-.2-1.2.7-1.1 4.1-.6 3.8.6zm-.6 3.9c0 .8-.4 1.2-.9.9-.5-.3-.6-1-.3-1.5.9-1.3 1.2-1.1 1.2.6zm-.9 12c-.3.3-.9-.2-1.2-1.2-.6-1.4-.5-1.5.5-.6.7.7 1 1.5.7 1.8z"/><path d="M503.2 72.8c.1 1.8.7 3.1 1.2 2.9 1.6-.5 1.7-2.2.1-4.2-1.4-1.9-1.5-1.8-1.3 1.3zM507.3 83.7c0 .7.4 1.3.8 1.3s.9-.6 1.2-1.3c.3-.8 0-1.4-.7-1.4s-1.3.6-1.3 1.4zM504.6 87.2c.3.4-.1.8-.8.8-.9 0-1 .3-.2.8.6.4 1 1.5.9 2.4-.2.9.5 2.7 1.6 3.9 1 1.2 1.6 2.5 1.4 2.9-.3.5 0 1.1.5 1.3.6.3.5.4-.2.3-.7-.2-1.3-.8-1.3-1.4 0-2.2-1.1-2-1.3.3-.1 1.9.3 2.5 1.8 2.5 1.1 0 2 .4 2 .9 0 .6-.9.8-2.1.6-1.7-.4-1.9-.2-.9 1 .7.8.8 1.5.3 1.5s-.9.9-.9 2 .3 2 .7 2c.3 0 .5 1.2.4 2.7-.1 1.6.2 3.6.7 4.5.5 1 .4 1.9-.2 2.3-1.1.6-.2 3.5 1.1 3.5.4 0 1.3-1 2-2.1.8-1.5.8-1.9 0-1.5-1.3.9-1.4-.4-.1-2.4.6-.9.5-1.9-.3-2.9-1.4-1.6-1.3-2.1.5-3.3.9-.6.8-.8-.7-.6-1.4.2-2-.3-2.1-2-.1-1.2.2-2.5.7-2.8.4-.2.6.5.4 1.6-.2 1.1.1 2 .7 2 .5 0 .8-.7.5-1.5-.4-.8-.2-1.7.3-2 .6-.4.7-1.3.1-2.3-.4-.9-.7-3.1-.6-4.8.1-2.5-.2-3.1-1.4-2.7-1.5.4-1.5.3 0-.9.8-.7 1.5-2.7 1.4-4.3-.2-2.5-.6-3-2.8-3-1.4-.1-2.3.3-2.1.7zm3.6 1c-.8.8-.8 1.5-.2 2.3.7.9.5 1.6-.5 2.5-.8.7-1.5 1.1-1.6.9-.5-2.1-.4-5.7.2-5.3.4.2 1 0 1.4-.6.3-.5.9-1 1.3-1 .3 0 .1.5-.6 1.2zm-.4 23.1c-.1.2.2 1 .9 1.8.8 1 .9 2 .3 2.9-.6.8-1 1-1.1.5-.5-4.2-.5-6.5-.2-6.1.3.2.3.6.1.9zm1.2 8.7c0 .5-.2 1-.4 1-.3 0-.8-.5-1.1-1-.3-.6-.1-1 .4-1 .6 0 1.1.4 1.1 1z"/><path d="M506.3 91.5c0 .8.4 1.2.9.9.5-.3.6-1 .3-1.5-.9-1.3-1.2-1.1-1.2.6zM508.8 122.7c-1.2.3-1.6 1.2-1.4 2.6.3 1.2.5 2.5.5 2.8.1.4.7.9 1.5 1.2 1.4.6 1.6-1.6.3-2.9-.3-.4-.2-1.5.4-2.5.5-1.1.8-1.8.7-1.8-.2.1-1.1.3-2 .6zM508 132c1.3.8 1.3 1 .1 1-1.1 0-1 .4.5 1.6 1.3 1.1 1.4 1.4.3 1.1-.9-.3-1.6.1-1.6.8 0 1.1.5 1.1 2 .4 1.3-.8 1.6-1.4.9-2.1-.6-.6-.8-1.7-.5-2.4.3-.9-.2-1.4-1.3-1.4-1.6 0-1.7.2-.4 1zM508.5 139c-1.6.7-1.7.9-.3.9.9.1 2-.4 2.3-.9.7-1.1.7-1.1-2 0zM508.1 141.9c-1.1.7-1.1.9 0 1.4 1.2.5 1.2.7 0 1.5-.9.7-1 1.2-.2 1.6 1 .7 1.3.3 1.5-2.7.1-.6.6-1.5 1.1-1.9 1.4-1.1-.7-1-2.4.1zM85.2 144.2c.3.7 1.2 1.4 2.2 1.4 1.3.2 1.3.1.1-.3-.8-.2-1.3-.9-1-1.4.4-.5.1-.9-.5-.9-.7 0-1 .6-.8 1.2zM85 147.5c0 .2 1 1 2.3 1.6 2 1.1 2.1 1.1.8-.4-1.3-1.6-3.1-2.3-3.1-1.2zM508.5 148.3c-1.5 1.2-1.6 1.5-.4 2.2.8.5 1.1.5.7 0-.4-.4 0-1.4 1-2.1 2.3-1.8 1.1-1.8-1.3-.1zM509 154c0 .5.5 1 1.1 1 .5 0 .7-.5.4-1-.3-.6-.8-1-1.1-1-.2 0-.4.4-.4 1zM87.3 155.1c-.6.6-.9 1.8-.6 2.5.8 2.2 1.9 1.6 1.9-1.1 0-1.4 0-2.5-.1-2.5s-.6.5-1.2 1.1zM507.8 156.7c.7.3 1.6.2 1.9-.1.4-.3-.2-.6-1.3-.5-1.1 0-1.4.3-.6.6zM509 160c-.9.6-1 1-.3 1 .6 0 1.5-.5 1.8-1 .8-1.2.4-1.2-1.5 0zM87.4 162.5c0 1.4.4 2.5.8 2.5s.7-.9.5-2c-.5-2.9-1.3-3.3-1.3-.5zM507.5 168c-.3.6.1.7.9.4 1.8-.7 2.1-1.4.7-1.4-.6 0-1.3.4-1.6 1zM87 169.4c0 .2.7.7 1.6 1 .8.3 1.2.2.9-.4-.6-1-2.5-1.4-2.5-.6zM508 176.1c0 .5.5.7 1 .4.6-.3 1-.8 1-1.1 0-.2-.4-.4-1-.4-.5 0-1 .5-1 1.1zM87.7 177.1c.7.7 1.5 1 1.8.7.3-.3-.2-.9-1.2-1.2-1.4-.6-1.5-.5-.6.5zM507.9 180.7c-1.3 1.6-1.2 1.7.4.4 1.6-1.3 2.1-2.1 1.3-2.1-.2 0-1 .8-1.7 1.7zM89.5 186c.3.5.8 1 1.1 1 .2 0 .4-.5.4-1 0-.6-.5-1-1.1-1-.5 0-.7.4-.4 1z"/></svg>